<?xml version="1.0" standalone="no"?>
<!DOCTYPE svg PUBLIC "-//W3C//DTD SVG 20010904//EN"
 "http://www.w3.org/TR/2001/REC-SVG-20010904/DTD/svg10.dtd">
<svg version="1.0" xmlns="http://www.w3.org/2000/svg"
 width="384.000000pt" height="384.000000pt" viewBox="0 0 384.000000 384.000000"
 preserveAspectRatio="xMidYMid meet">
<metadata>
Created by potrace 1.14, written by Peter Selinger 2001-2017
</metadata>
<g transform="translate(0.000000,384.000000) scale(0.100000,-0.100000)"
fill="#000000" stroke="none">
<path d="M1415 3538 c-517 -38 -956 -74 -976 -79 -57 -14 -102 -50 -127 -100
l-23 -46 1 -1099 c0 -604 4 -1113 9 -1129 15 -53 58 -129 113 -200 30 -39 147
-190 261 -337 121 -156 221 -275 241 -287 62 -39 125 -43 388 -26 134 8 509
31 833 50 1061 63 1230 75 1266 85 59 17 102 52 129 105 l25 50 2 1190 c2 683
-1 1206 -6 1229 -5 21 -22 52 -38 68 -36 38 -739 532 -807 567 -85 44 -215 40
-1291 -41z m1219 -134 c26 -9 128 -74 229 -146 189 -135 235 -173 225 -184 -4
-3 -107 -12 -230 -20 -624 -39 -1582 -95 -1725 -101 -196 -7 -182 -13 -400
160 -153 120 -174 145 -135 166 10 5 272 28 582 51 311 22 705 51 875 64 387
29 515 32 579 10z m667 -590 l24 -26 3 -1039 c3 -1131 5 -1087 -53 -1125 -17
-11 -60 -20 -128 -26 -242 -20 -2055 -119 -2085 -113 -18 3 -47 19 -65 35
l-32 28 0 1056 0 1056 27 26 c30 31 -23 26 983 84 297 17 673 39 835 49 162
10 334 19 381 20 80 1 87 -1 110 -25z"/>
<path d="M2724 2465 c-220 -14 -252 -23 -279 -75 -29 -56 -22 -67 48 -75 34
-3 74 -8 90 -11 l27 -6 0 -451 c0 -382 -2 -449 -14 -437 -7 8 -156 233 -331
500 -174 267 -322 491 -329 498 -9 10 -58 9 -246 -3 -129 -9 -250 -18 -269
-21 -43 -7 -76 -41 -92 -94 -16 -51 -6 -60 66 -60 28 0 60 -3 73 -6 l22 -6 0
-648 0 -647 -64 -17 c-72 -20 -93 -37 -102 -86 l-7 -33 164 7 c276 13 373 22
407 40 31 16 72 79 60 92 -4 3 -51 16 -105 28 l-98 21 -3 490 c-2 412 0 487
11 475 8 -8 155 -235 327 -505 320 -502 371 -575 421 -601 69 -35 170 -27 281
23 l58 26 0 727 0 726 63 12 c73 14 97 36 97 93 0 46 31 43 -276 24z"/>
</g>
</svg>
